<?xml version="1.0" encoding="UTF-8" standalone="no"?>
<!DOCTYPE svg PUBLIC "-//W3C//DTD SVG 1.1//EN"
 "http://www.w3.org/Graphics/SVG/1.1/DTD/svg11.dtd">
<!-- Generated by graphviz version 2.40.1 (20161225.0304)
 -->
<!-- Title: state transitions Pages: 1 -->
<svg width="2178pt" height="282pt"
 viewBox="0.00 0.00 2178.00 282.00" xmlns="http://www.w3.org/2000/svg" xmlns:xlink="http://www.w3.org/1999/xlink">
<g id="graph0" class="graph" transform="scale(1 1) rotate(0) translate(4 278)">
<title>state transitions</title>
<polygon fill="#ffffff" stroke="transparent" points="-4,4 -4,-278 2174,-278 2174,4 -4,4"/>
<g id="clust1" class="cluster state regular">
<title>cluster_next_state</title>
<path fill="none" stroke="#000000" stroke-width="2" d="M20,-8C20,-8 2150,-8 2150,-8 2156,-8 2162,-14 2162,-20 2162,-20 2162,-254 2162,-254 2162,-260 2156,-266 2150,-266 2150,-266 20,-266 20,-266 14,-266 8,-260 8,-254 8,-254 8,-20 8,-20 8,-14 14,-8 20,-8"/>
<text text-anchor="start" x="1057.8208" y="-247.2" font-family="Helvetica,sans-Serif" font-size="12.00" fill="#000000">next_state</text>
</g>
<!-- next_state -->
<!-- S0 -->
<g id="node2" class="node state regular">
<title>S0</title>
<polygon fill="#ffffff" fill-opacity="0.003922" stroke="transparent" stroke-width="2" points="1611,-228 1555,-228 1555,-192 1611,-192 1611,-228"/>
<text text-anchor="start" x="1575.6632" y="-206.2" font-family="Helvetica,sans-Serif" font-size="12.00" fill="#000000">S0</text>
<path fill="none" stroke="#000000" stroke-width="2" d="M1567.3333,-193C1567.3333,-193 1598.6667,-193 1598.6667,-193 1604.3333,-193 1610,-198.6667 1610,-204.3333 1610,-204.3333 1610,-215.6667 1610,-215.6667 1610,-221.3333 1604.3333,-227 1598.6667,-227 1598.6667,-227 1567.3333,-227 1567.3333,-227 1561.6667,-227 1556,-221.3333 1556,-215.6667 1556,-215.6667 1556,-204.3333 1556,-204.3333 1556,-198.6667 1561.6667,-193 1567.3333,-193"/>
</g>
<!-- S1 -->
<g id="node3" class="node state regular">
<title>S1</title>
<polygon fill="#ffffff" fill-opacity="0.003922" stroke="transparent" stroke-width="2" points="1063,-146 1007,-146 1007,-110 1063,-110 1063,-146"/>
<text text-anchor="start" x="1027.6632" y="-124.2" font-family="Helvetica,sans-Serif" font-size="12.00" fill="#000000">S1</text>
<path fill="none" stroke="#000000" stroke-width="2" d="M1019.3333,-111C1019.3333,-111 1050.6667,-111 1050.6667,-111 1056.3333,-111 1062,-116.6667 1062,-122.3333 1062,-122.3333 1062,-133.6667 1062,-133.6667 1062,-139.3333 1056.3333,-145 1050.6667,-145 1050.6667,-145 1019.3333,-145 1019.3333,-145 1013.6667,-145 1008,-139.3333 1008,-133.6667 1008,-133.6667 1008,-122.3333 1008,-122.3333 1008,-116.6667 1013.6667,-111 1019.3333,-111"/>
</g>
<!-- S0&#45;&gt;S1 -->
<g id="edge1" class="edge transition">
<title>S0&#45;&gt;S1</title>
<path fill="none" stroke="#000000" d="M1554.6911,-205.764C1463.4712,-192.1143 1177.1398,-149.2691 1073.1892,-133.7144"/>
<polygon fill="#000000" stroke="#000000" points="1073.5476,-130.2292 1063.1397,-132.2107 1072.5116,-137.1521 1073.5476,-130.2292"/>
<text text-anchor="middle" x="1346.3895" y="-166" font-family="Helvetica,sans-Serif" font-size="10.00" fill="#000000"> </text>
</g>
<!-- S2 -->
<g id="node4" class="node state regular">
<title>S2</title>
<polygon fill="#ffffff" fill-opacity="0.003922" stroke="transparent" stroke-width="2" points="2138,-52 2082,-52 2082,-16 2138,-16 2138,-52"/>
<text text-anchor="start" x="2102.6632" y="-30.2" font-family="Helvetica,sans-Serif" font-size="12.00" fill="#000000">S2</text>
<path fill="none" stroke="#000000" stroke-width="2" d="M2094.3333,-17C2094.3333,-17 2125.6667,-17 2125.6667,-17 2131.3333,-17 2137,-22.6667 2137,-28.3333 2137,-28.3333 2137,-39.6667 2137,-39.6667 2137,-45.3333 2131.3333,-51 2125.6667,-51 2125.6667,-51 2094.3333,-51 2094.3333,-51 2088.6667,-51 2083,-45.3333 2083,-39.6667 2083,-39.6667 2083,-28.3333 2083,-28.3333 2083,-22.6667 2088.6667,-17 2094.3333,-17"/>
</g>
<!-- S1&#45;&gt;S2 -->
<g id="edge2" class="edge transition">
<title>S1&#45;&gt;S2</title>
<path fill="none" stroke="#000000" d="M1063.2674,-127.4024C1167.9634,-125.125 1543.5876,-116.386 1853,-102 1918.385,-98.9599 1937.0347,-110.8833 2000,-93 2026.8136,-85.3845 2054.4519,-70.5272 2075.3171,-57.6279"/>
<polygon fill="#000000" stroke="#000000" points="2077.2434,-60.5509 2083.8225,-52.2463 2073.5006,-54.6355 2077.2434,-60.5509"/>
<text text-anchor="start" x="2055" y="-78" font-family="Helvetica,sans-Serif" font-size="10.00" fill="#000000">refund &#160;&#160;</text>
</g>
<!-- S3 -->
<g id="node5" class="node state regular">
<title>S3</title>
<polygon fill="#ffffff" fill-opacity="0.003922" stroke="transparent" stroke-width="2" points="1498,-52 1442,-52 1442,-16 1498,-16 1498,-52"/>
<text text-anchor="start" x="1462.6632" y="-30.2" font-family="Helvetica,sans-Serif" font-size="12.00" fill="#000000">S3</text>
<path fill="none" stroke="#000000" stroke-width="2" d="M1454.3333,-17C1454.3333,-17 1485.6667,-17 1485.6667,-17 1491.3333,-17 1497,-22.6667 1497,-28.3333 1497,-28.3333 1497,-39.6667 1497,-39.6667 1497,-45.3333 1491.3333,-51 1485.6667,-51 1485.6667,-51 1454.3333,-51 1454.3333,-51 1448.6667,-51 1443,-45.3333 1443,-39.6667 1443,-39.6667 1443,-28.3333 1443,-28.3333 1443,-22.6667 1448.6667,-17 1454.3333,-17"/>
</g>
<!-- S1&#45;&gt;S3 -->
<g id="edge4" class="edge transition">
<title>S1&#45;&gt;S3</title>
<path fill="none" stroke="#000000" d="M1063.4235,-127.8382C1200.2502,-126.9192 1785.5362,-121.3378 1811,-93 1868.0598,-29.5001 1805.2463,-68.1497 1727,-60 1649.3367,-51.911 1558.432,-42.798 1508.2238,-37.7958"/>
<polygon fill="#000000" stroke="#000000" points="1508.4446,-34.3006 1498.1471,-36.7926 1507.7511,-41.2661 1508.4446,-34.3006"/>
<text text-anchor="start" x="1830" y="-84" font-family="Helvetica,sans-Serif" font-size="10.00" fill="#000000">vend(0) &#160;&#160;</text>
<text text-anchor="start" x="1830" y="-72" font-family="Helvetica,sans-Serif" font-size="10.00" fill="#000000">not (credit &gt;= 2) &#160;&#160;</text>
</g>
<!-- S1&#45;&gt;S3 -->
<g id="edge6" class="edge transition">
<title>S1&#45;&gt;S3</title>
<path fill="none" stroke="#000000" d="M1063.2228,-127.4175C1212.0172,-124.2802 1899.1531,-108.9452 1914,-93 1921.2688,-85.1935 1921.24,-76.8332 1914,-69 1900.3001,-54.1777 1613.5032,-40.2477 1508.275,-35.6174"/>
<polygon fill="#000000" stroke="#000000" points="1508.2372,-32.1125 1498.0942,-35.1735 1507.9323,-39.1058 1508.2372,-32.1125"/>
<text text-anchor="start" x="1919" y="-84" font-family="Helvetica,sans-Serif" font-size="10.00" fill="#000000">vend(1) &#160;&#160;</text>
<text text-anchor="start" x="1919" y="-72" font-family="Helvetica,sans-Serif" font-size="10.00" fill="#000000">not (credit &gt;=4) &#160;&#160;</text>
</g>
<!-- S1&#45;&gt;S3 -->
<g id="edge8" class="edge transition">
<title>S1&#45;&gt;S3</title>
<path fill="none" stroke="#000000" d="M1006.9972,-112.2695C1000.327,-107.0631 994.0744,-100.6146 990.369,-93 985.7017,-83.4086 983.1738,-76.8745 990.369,-69 1005.2021,-52.7666 1320.5328,-39.5454 1431.6582,-35.3749"/>
<polygon fill="#000000" stroke="#000000" points="1431.8947,-38.8686 1441.7579,-34.9997 1431.6348,-31.8734 1431.8947,-38.8686"/>
<text text-anchor="start" x="990" y="-84" font-family="Helvetica,sans-Serif" font-size="10.00" fill="#000000">vend(2) &#160;&#160;</text>
<text text-anchor="start" x="990" y="-72" font-family="Helvetica,sans-Serif" font-size="10.00" fill="#000000">not (credit = 20) &#160;&#160;</text>
</g>
<!-- S1&#45;&gt;S3 -->
<g id="edge10" class="edge transition">
<title>S1&#45;&gt;S3</title>
<path fill="none" stroke="#000000" d="M1052.7614,-109.9629C1067.5288,-96.193 1089.8233,-78.0881 1113.089,-69 1170.3943,-46.6152 1351.9249,-37.9333 1431.7305,-35.1378"/>
<polygon fill="#000000" stroke="#000000" points="1431.9681,-38.6319 1441.8442,-34.7962 1431.7317,-31.6359 1431.9681,-38.6319"/>
<text text-anchor="start" x="1113" y="-84" font-family="Helvetica,sans-Serif" font-size="10.00" fill="#000000">vend(3) &#160;&#160;</text>
<text text-anchor="start" x="1113" y="-72" font-family="Helvetica,sans-Serif" font-size="10.00" fill="#000000">not (credit &gt;= 9) &#160;&#160;</text>
</g>
<!-- S1&#45;&gt;S3 -->
<g id="edge12" class="edge transition">
<title>S1&#45;&gt;S3</title>
<path fill="none" stroke="#000000" d="M1063.1082,-124.293C1095.266,-119.4813 1149.1395,-109.6644 1193,-93 1213.4917,-85.2144 1215.3393,-76.0693 1236.089,-69 1302.5773,-46.3479 1384.6521,-38.3409 1431.7957,-35.5212"/>
<polygon fill="#000000" stroke="#000000" points="1432.0785,-39.011 1441.8709,-34.9664 1431.6935,-32.0216 1432.0785,-39.011"/>
<text text-anchor="start" x="1236" y="-84" font-family="Helvetica,sans-Serif" font-size="10.00" fill="#000000">vend(4) &#160;&#160;</text>
<text text-anchor="start" x="1236" y="-72" font-family="Helvetica,sans-Serif" font-size="10.00" fill="#000000">not (credit &gt;= 7) &#160;&#160;</text>
</g>
<!-- S1&#45;&gt;S3 -->
<g id="edge14" class="edge transition">
<title>S1&#45;&gt;S3</title>
<path fill="none" stroke="#000000" d="M1063.2158,-125.8843C1124.7926,-121.0409 1269.4328,-108.3719 1316,-93 1336.6103,-86.1965 1338.616,-77.6316 1358.53,-69 1382.3084,-58.6934 1410.1174,-49.9566 1432.0111,-43.7898"/>
<polygon fill="#000000" stroke="#000000" points="1433.2174,-47.0879 1441.9284,-41.0573 1431.3579,-40.3394 1433.2174,-47.0879"/>
<text text-anchor="start" x="1358" y="-84" font-family="Helvetica,sans-Serif" font-size="10.00" fill="#000000">vend(5) &#160;&#160;</text>
<text text-anchor="start" x="1358" y="-72" font-family="Helvetica,sans-Serif" font-size="10.00" fill="#000000">not (credit &gt;= 12) &#160;&#160;</text>
</g>
<!-- S1&#45;&gt;S3 -->
<g id="edge16" class="edge transition">
<title>S1&#45;&gt;S3</title>
<path fill="none" stroke="#000000" d="M1063.1283,-127.2371C1150.4873,-124.6427 1413.1258,-115.0667 1444,-93 1454.2834,-85.6501 1460.5536,-73.3047 1464.3502,-61.8009"/>
<polygon fill="#000000" stroke="#000000" points="1467.753,-62.6288 1467.0885,-52.0548 1461.014,-60.7353 1467.753,-62.6288"/>
<text text-anchor="start" x="1461" y="-84" font-family="Helvetica,sans-Serif" font-size="10.00" fill="#000000">vend(6) &#160;&#160;</text>
<text text-anchor="start" x="1461" y="-72" font-family="Helvetica,sans-Serif" font-size="10.00" fill="#000000">not (credit &gt;= 18) &#160;&#160;</text>
</g>
<!-- S1&#45;&gt;S3 -->
<g id="edge18" class="edge transition">
<title>S1&#45;&gt;S3</title>
<path fill="none" stroke="#000000" d="M1063.1166,-127.1431C1168.2768,-123.8039 1533.2824,-110.9543 1550,-93 1557.2688,-85.1935 1555.8384,-77.927 1550,-69 1540.5172,-54.5007 1523.5582,-45.9717 1507.6877,-40.9722"/>
<polygon fill="#000000" stroke="#000000" points="1508.5949,-37.5918 1498.0233,-38.2936 1506.7252,-44.3374 1508.5949,-37.5918"/>
<text text-anchor="start" x="1554" y="-84" font-family="Helvetica,sans-Serif" font-size="10.00" fill="#000000">vend(7) &#160;&#160;</text>
<text text-anchor="start" x="1554" y="-72" font-family="Helvetica,sans-Serif" font-size="10.00" fill="#000000">not (credit &gt;= 3) &#160;&#160;</text>
</g>
<!-- S4 -->
<g id="node6" class="node state regular">
<title>S4</title>
<polygon fill="#ffffff" fill-opacity="0.003922" stroke="transparent" stroke-width="2" points="468,-52 412,-52 412,-16 468,-16 468,-52"/>
<text text-anchor="start" x="432.6632" y="-30.2" font-family="Helvetica,sans-Serif" font-size="12.00" fill="#000000">S4</text>
<path fill="none" stroke="#000000" stroke-width="2" d="M424.3333,-17C424.3333,-17 455.6667,-17 455.6667,-17 461.3333,-17 467,-22.6667 467,-28.3333 467,-28.3333 467,-39.6667 467,-39.6667 467,-45.3333 461.3333,-51 455.6667,-51 455.6667,-51 424.3333,-51 424.3333,-51 418.6667,-51 413,-45.3333 413,-39.6667 413,-39.6667 413,-28.3333 413,-28.3333 413,-22.6667 418.6667,-17 424.3333,-17"/>
</g>
<!-- S1&#45;&gt;S4 -->
<g id="edge3" class="edge transition">
<title>S1&#45;&gt;S4</title>
<path fill="none" stroke="#000000" d="M1006.9829,-127.1864C930.8604,-124.8374 713.8641,-117.2205 534,-102 499.8536,-99.1105 483.6259,-115.0848 457.423,-93 448.3568,-85.3587 443.8773,-73.2494 441.7114,-61.9843"/>
<polygon fill="#000000" stroke="#000000" points="445.1696,-61.4418 440.3075,-52.0285 438.2382,-62.4193 445.1696,-61.4418"/>
<text text-anchor="start" x="457" y="-84" font-family="Helvetica,sans-Serif" font-size="10.00" fill="#000000">credit &gt;= 2 &#160;&#160;</text>
<text text-anchor="start" x="457" y="-72" font-family="Helvetica,sans-Serif" font-size="10.00" fill="#000000">vend(0) &#160;&#160;</text>
</g>
<!-- S1&#45;&gt;S4 -->
<g id="edge5" class="edge transition">
<title>S1&#45;&gt;S4</title>
<path fill="none" stroke="#000000" d="M1006.9772,-127.5529C848.5345,-124.9578 71.4137,-111.3089 55.202,-93 2.9612,-34.0011 76.1592,-65.4289 129,-60 226.9275,-49.9389 342.5072,-41.0624 401.3545,-36.7571"/>
<polygon fill="#000000" stroke="#000000" points="401.9456,-40.2234 411.6653,-36.0071 401.4377,-33.2419 401.9456,-40.2234"/>
<text text-anchor="start" x="55" y="-84" font-family="Helvetica,sans-Serif" font-size="10.00" fill="#000000">credit &gt;=4 &#160;&#160;</text>
<text text-anchor="start" x="55" y="-72" font-family="Helvetica,sans-Serif" font-size="10.00" fill="#000000">vend(1) &#160;&#160;</text>
</g>
<!-- S1&#45;&gt;S4 -->
<g id="edge7" class="edge transition">
<title>S1&#45;&gt;S4</title>
<path fill="none" stroke="#000000" d="M1006.8331,-126.4994C960.1133,-123.4692 863.9808,-114.9299 785.703,-93 759.7454,-85.7279 756.0268,-76.0203 730,-69 641.9136,-45.24 534.4128,-37.5897 478.2875,-35.1409"/>
<polygon fill="#000000" stroke="#000000" points="478.228,-31.6358 468.0949,-34.7294 477.9456,-38.6301 478.228,-31.6358"/>
<text text-anchor="start" x="785" y="-84" font-family="Helvetica,sans-Serif" font-size="10.00" fill="#000000">credit = 20 &#160;&#160;</text>
<text text-anchor="start" x="785" y="-72" font-family="Helvetica,sans-Serif" font-size="10.00" fill="#000000">vend(2) &#160;&#160;</text>
</g>
<!-- S1&#45;&gt;S4 -->
<g id="edge9" class="edge transition">
<title>S1&#45;&gt;S4</title>
<path fill="none" stroke="#000000" d="M1006.9662,-127.8488C870.6782,-126.9753 282.8206,-121.5573 257.423,-93 250.3344,-85.0295 250.6275,-77.2219 257.423,-69 275.3815,-47.2718 353.841,-38.9 401.8737,-35.7738"/>
<polygon fill="#000000" stroke="#000000" points="402.1488,-39.2637 411.9196,-35.1672 401.7268,-32.2764 402.1488,-39.2637"/>
<text text-anchor="start" x="257" y="-84" font-family="Helvetica,sans-Serif" font-size="10.00" fill="#000000">credit &gt;= 9 &#160;&#160;</text>
<text text-anchor="start" x="257" y="-72" font-family="Helvetica,sans-Serif" font-size="10.00" fill="#000000">vend(3) &#160;&#160;</text>
</g>
<!-- S1&#45;&gt;S4 -->
<g id="edge11" class="edge transition">
<title>S1&#45;&gt;S4</title>
<path fill="none" stroke="#000000" d="M1006.8686,-127.6715C917.6456,-126.3594 641.9136,-120.1535 557.423,-93 536.4298,-86.2532 533.6261,-79.0524 514,-69 502.2225,-62.9677 489.2232,-56.6934 477.4487,-51.1512"/>
<polygon fill="#000000" stroke="#000000" points="478.8565,-47.9458 468.3152,-46.882 475.8924,-54.2873 478.8565,-47.9458"/>
<text text-anchor="start" x="557" y="-84" font-family="Helvetica,sans-Serif" font-size="10.00" fill="#000000">credit &gt;= 7 &#160;&#160;</text>
<text text-anchor="start" x="557" y="-72" font-family="Helvetica,sans-Serif" font-size="10.00" fill="#000000">vend(4) &#160;&#160;</text>
</g>
<!-- S1&#45;&gt;S4 -->
<g id="edge13" class="edge transition">
<title>S1&#45;&gt;S4</title>
<path fill="none" stroke="#000000" d="M1006.8151,-119.5912C983.2817,-112.5497 948.8608,-102.2029 918.864,-93 884.6497,-82.5031 877.1118,-75.9257 842,-69 710.2686,-43.0164 550.458,-36.3214 478.4503,-34.5973"/>
<polygon fill="#000000" stroke="#000000" points="478.1452,-31.0899 468.0706,-34.3692 477.9913,-38.0882 478.1452,-31.0899"/>
<text text-anchor="start" x="918" y="-84" font-family="Helvetica,sans-Serif" font-size="10.00" fill="#000000">credit &gt;= 12 &#160;&#160;</text>
<text text-anchor="start" x="918" y="-72" font-family="Helvetica,sans-Serif" font-size="10.00" fill="#000000">vend(5) &#160;&#160;</text>
</g>
<!-- S1&#45;&gt;S4 -->
<g id="edge15" class="edge transition">
<title>S1&#45;&gt;S4</title>
<path fill="none" stroke="#000000" d="M1006.8207,-127.9491C862.7459,-127.5508 214.1011,-124.0345 185.864,-93 178.6855,-85.1103 178.8549,-77.0406 185.864,-69 199.8232,-52.9866 334.135,-41.4016 401.6518,-36.5387"/>
<polygon fill="#000000" stroke="#000000" points="402.157,-40.0119 411.8857,-35.8163 401.664,-33.0292 402.157,-40.0119"/>
<text text-anchor="start" x="185" y="-84" font-family="Helvetica,sans-Serif" font-size="10.00" fill="#000000">credit &gt;= 18 &#160;&#160;</text>
<text text-anchor="start" x="185" y="-72" font-family="Helvetica,sans-Serif" font-size="10.00" fill="#000000">vend(6) &#160;&#160;</text>
</g>
<!-- S1&#45;&gt;S4 -->
<g id="edge17" class="edge transition">
<title>S1&#45;&gt;S4</title>
<path fill="none" stroke="#000000" d="M1006.7296,-127.586C884.1172,-125.6519 403.548,-116.5838 382.423,-93 375.3061,-85.0547 377.1944,-78.2973 382.423,-69 387.1393,-60.6136 394.7686,-54.0032 402.952,-48.8933"/>
<polygon fill="#000000" stroke="#000000" points="404.8805,-51.8265 411.9379,-43.9243 401.493,-45.7007 404.8805,-51.8265"/>
<text text-anchor="start" x="382" y="-84" font-family="Helvetica,sans-Serif" font-size="10.00" fill="#000000">credit &gt;= 3 &#160;&#160;</text>
<text text-anchor="start" x="382" y="-72" font-family="Helvetica,sans-Serif" font-size="10.00" fill="#000000">vend(7) &#160;&#160;</text>
</g>
<!-- S2&#45;&gt;S0 -->
<g id="edge19" class="edge transition">
<title>S2&#45;&gt;S0</title>
<path fill="none" stroke="#000000" d="M2110.8304,-52.1326C2110.4098,-65.2179 2107.5951,-82.3834 2097,-93 1953.8767,-236.4146 1848.9472,-144.4202 1652,-192 1641.8915,-194.4421 1630.9878,-197.2195 1620.899,-199.8493"/>
<polygon fill="#000000" stroke="#000000" points="1619.9244,-196.4865 1611.1415,-202.412 1621.7026,-203.2569 1619.9244,-196.4865"/>
<text text-anchor="start" x="2078" y="-125" font-family="Helvetica,sans-Serif" font-size="10.00" fill="#000000">ctr = x&quot;3FFFFFF&quot; &#160;&#160;</text>
</g>
<!-- S3&#45;&gt;S1 -->
<g id="edge20" class="edge transition">
<title>S3&#45;&gt;S1</title>
<path fill="none" stroke="#000000" d="M1498.3649,-34.7954C1556.3391,-37.35 1679.5728,-48.0768 1638,-93 1618.7757,-113.7736 1202.9771,-124.4039 1073.2826,-127.2228"/>
<polygon fill="#000000" stroke="#000000" points="1072.9608,-123.7288 1063.038,-127.4421 1073.1107,-130.7272 1072.9608,-123.7288"/>
<text text-anchor="start" x="1646" y="-78" font-family="Helvetica,sans-Serif" font-size="10.00" fill="#000000">ctr = x&quot;3FFFFFF&quot; &#160;&#160;</text>
</g>
<!-- S4&#45;&gt;S1 -->
<g id="edge21" class="edge transition">
<title>S4&#45;&gt;S1</title>
<path fill="none" stroke="#000000" d="M468.2555,-37.779C510.7748,-43.7836 588.9068,-56.145 614,-69 627.9519,-76.1474 625.5228,-86.6315 639.847,-93 671.9632,-107.2788 904.1137,-121.0402 996.8657,-126.0304"/>
<polygon fill="#000000" stroke="#000000" points="996.7768,-129.5305 1006.9489,-126.5678 997.1494,-122.5405 996.7768,-129.5305"/>
<text text-anchor="start" x="639" y="-78" font-family="Helvetica,sans-Serif" font-size="10.00" fill="#000000">ctr = x&quot;3FFFFFF&quot; &#160;&#160;</text>
</g>
</g>
</svg>
